inDegrees=yes
name=ik_S48_A09_T01
DataType=double
version=3
OpenSimVersion=4.3-2021-08-27-4bc7ad9
endheader
time	pelvis_tilt	pelvis_list	pelvis_rotation	pelvis_tx	pelvis_ty	pelvis_tz	hip_flexion_r	hip_adduction_r	hip_rotation_r	knee_angle_r	knee_angle_r_beta	ankle_angle_r	subtalar_angle_r	mtp_angle_r	hip_flexion_l	hip_adduction_l	hip_rotation_l	knee_angle_l	knee_angle_l_beta	ankle_angle_l	subtalar_angle_l	mtp_angle_l	lumbar_extension	lumbar_bending	lumbar_rotation	arm_flex_r	arm_add_r	arm_rot_r	elbow_flex_r	pro_sup_r	wrist_flex_r	wrist_dev_r	arm_flex_l	arm_add_l	arm_rot_l	elbow_flex_l	pro_sup_l	wrist_flex_l	wrist_dev_l
12.07999999999983	-7.108965743714566	-4.485962742633836	32.81840810091659	0	0.9399999999999999	0	39.44340450244409	-11.82826669591436	-10.50604598312297	54.2190023365211	0.9463001079187917	0	0	0	39.44340450244409	-11.82826669591436	-10.50604598312297	54.2190023365211	0.9463001079187917	0	0	0	-5.964310343484073	-4.035557664922589	5.116723092514322	70.72313076186906	-0.7264252333921229	5.704236279153384	42.31487793778268	111.8764762390974	0	0	59.1051541500059	-21.80455755931868	10.94873521840989	47.30798428023618	87.7487456055372	0	0
12.09999999999983	-7.115915441529036	-4.503555070782327	32.94520001821747	0	0.9399999999999999	0	39.44622918004587	-11.82507013681741	-10.5054771941472	54.21926981582366	0.9463047763133023	0	0	0	39.44622918004587	-11.82507013681741	-10.5054771941472	54.21926981582366	0.9463047763133023	0	0	0	-5.990929237763876	-4.023967344965305	4.977759065672473	70.8436100676158	-0.5664361748759427	5.754982512568269	42.19821346431721	109.6875401565594	0	0	59.13077690730747	-21.83596557835572	10.92881400119201	47.35785305305848	87.63948602585444	0	0
12.11999999999983	-7.124177709452616	-4.550669588251089	32.95763053085612	0	0.9399999999999999	0	39.44786565234803	-11.8232510155138	-10.50515146659697	54.2194273052769	0.9463075250227986	0	0	0	39.44786565234803	-11.8232510155138	-10.50515146659697	54.2194273052769	0.9463075250227986	0	0	0	-6.025286629232843	-4.055168605274257	4.958131995154401	70.9221649275664	-0.5277773733948348	5.691415511790107	42.42426537016882	108.6044426428035	0	0	59.18625456517691	-21.87911531987762	11.03922406684791	47.41296536596674	87.60877942656396	0	0
12.13999999999983	-7.146207488758123	-4.553753168491745	33.04466314758199	0	0.9399999999999999	0	39.45047022106736	-11.82028184336043	-10.50462429240791	54.219671824173	0.9463117926826188	0	0	0	39.45047022106736	-11.82028184336043	-10.50462429240791	54.219671824173	0.9463117926826188	0	0	0	-6.051061439419103	-4.033914079732922	4.889283299578698	71.30371248972871	-0.2703504663813464	5.731181261652315	42.3531195745014	107.5700174844001	0	0	59.14941739730332	-21.85684395707982	11.05492858970706	47.50941680411417	87.51558785784077	0	0
12.15999999999983	-7.18055206850272	-4.605952809848167	33.0837515654821	0	0.9399999999999999	0	39.45267704691808	-11.81778104977813	-10.50417930994051	54.21988005090924	0.9463154269247569	0	0	0	39.45267704691808	-11.81778104977813	-10.50417930994051	54.21988005090924	0.9463154269247569	0	0	0	-6.11211405506737	-4.051289193017196	4.84914255363296	71.73508846540882	-0.1429685274912408	5.579765706230106	42.40532144485793	107.0135784322584	0	0	59.23959993622442	-21.89710107055442	11.0783392254614	47.59737086810225	87.53207065797432	0	0
12.17999999999983	-7.20323406560604	-4.631570011427564	33.11567701624509	0	0.9399999999999999	0	39.45427679184068	-11.81597407349765	-10.50385738526148	54.22003137090501	0.9463180679569072	0	0	0	39.45427679184068	-11.81597407349765	-10.50385738526148	54.22003137090501	0.9463180679569072	0	0	0	-6.146507907719663	-4.058094711167294	4.841510915132655	72.72951908353673	0.0005576224720107465	5.290462559920213	41.87352106573402	106.5610337621635	0	0	59.20538235130839	-21.87469267057253	11.10408673269231	47.74856352610123	87.54916570006601	0	0
12.19999999999983	-7.217573566298506	-4.650452800334009	33.12214851685779	0	0.9399999999999999	0	39.45641464502847	-11.81356289193475	-10.50342753365297	54.22023373221968	0.9463215998281268	0	0	0	39.45641464502847	-11.81356289193475	-10.50342753365297	54.22023373221968	0.9463215998281268	0	0	0	-6.169733257253993	-4.065165056388024	4.844010386812996	73.41951367796295	-0.004858514455900699	5.105334523401929	41.65115324174122	105.1266272273969	0	0	59.14960412761286	-21.90590620978541	11.16861242040252	47.90015356412524	87.49645785976071	0	0
12.21999999999983	-7.259718415214162	-4.692031322099298	33.20008120807447	0	0.9399999999999999	0	39.45919910114748	-11.81041062659918	-10.50286618323514	54.22049611520328	0.9463261792750919	0	0	0	39.45919910114748	-11.81041062659918	-10.50286618323514	54.22049611520328	0.9463261792750919	0	0	0	-6.229408124424369	-4.074130028137789	4.838417781625587	74.19156070119354	-0.0460171739335402	4.982076023309115	41.14428622768894	104.5835086721461	0	0	59.19989604205078	-21.88811193120817	11.20053009806133	48.10467174878434	87.60188332547035	0	0
12.23999999999983	-7.298143078954154	-4.746837596439888	33.28653276472794	0	0.9399999999999999	0	39.46126116354556	-11.80808749796556	-10.50245172857493	54.2206911770531	0.9463295837466162	0	0	0	39.46126116354556	-11.80808749796556	-10.50245172857493	54.2206911770531	0.9463295837466162	0	0	0	-6.291580104737502	-4.099368258591316	4.851054235325796	75.08010818862138	-0.06500818881156752	4.752958128593527	40.42395541848126	104.5969519601131	0	0	59.25265966914186	-21.84051341129281	11.26491771045692	48.28906562209522	87.7230080572446	0	0
12.25999999999983	-7.335947324006357	-4.803936539682766	33.32097089786205	0	0.9399999999999999	0	39.46396065400611	-11.80504399761696	-10.50190879661842	54.22094613307516	0.946334033568649	0	0	0	39.46396065400611	-11.80504399761696	-10.50190879661842	54.22094613307516	0.946334033568649	0	0	0	-6.351195977326502	-4.13565949756682	4.918631714025983	76.06268445580662	-0.1067628276930734	4.424658276759981	39.36990858739639	105.0845395852574	0	0	59.29652316648221	-21.79671740360214	11.44500536089535	48.47699851286011	87.71755228638514	0	0
12.27999999999983	-7.349420383611122	-4.83168847653947	33.29989067287846	0	0.9399999999999999	0	39.46713398160464	-11.80146103996109	-10.50126979865864	54.22124507221066	0.9463392510408266	0	0	0	39.46713398160464	-11.80146103996109	-10.50126979865864	54.22124507221066	0.9463392510408266	0	0	0	-6.374103155048516	-4.161027029358898	4.988939536187264	77.05529319898419	-0.09990422105563826	4.075550256471421	38.07000450382436	105.6312013590547	0	0	59.23874326843704	-21.81004988588248	11.59060181257865	48.67696301620251	87.64772138054641	0	0
